<?xml version="1.0" encoding="UTF-8" standalone="no"?>
<svg
   xmlns:dc="http://purl.org/dc/elements/1.1/"
   xmlns:cc="http://creativecommons.org/ns#"
   xmlns:rdf="http://www.w3.org/1999/02/22-rdf-syntax-ns#"
   xmlns:svg="http://www.w3.org/2000/svg"
   xmlns="http://www.w3.org/2000/svg"
   viewBox="0 0 209.93119 110.14867"
   height="110.14867"
   width="209.93118"
   xml:space="preserve"
   id="svg1833"
   version="1.1"><metadata
     id="metadata1839"><rdf:RDF><cc:Work
         rdf:about=""><dc:format>image/svg+xml</dc:format><dc:type
           rdf:resource="http://purl.org/dc/dcmitype/StillImage" /><dc:title></dc:title></cc:Work></rdf:RDF></metadata><defs
     id="defs1837"><clipPath
       id="clipPath1849"
       clipPathUnits="userSpaceOnUse"><path
         id="path1847"
         d="M 0,0 H 1366 V 768 H 0 Z" /></clipPath><clipPath
       id="clipPath1863"
       clipPathUnits="userSpaceOnUse"><path
         id="path1861"
         d="M 0,0 H 1366 V 768 H 0 Z" /></clipPath><clipPath
       id="clipPath1895"
       clipPathUnits="userSpaceOnUse"><path
         id="path1893"
         d="M 0,0 H 1366 V 768 H 0 Z" /></clipPath></defs><g
     transform="matrix(1.3333333,0,0,-1.3333333,-35.838951,123.03812)"
     id="g1841"><g
       transform="translate(46.317214,68.95329)"
       id="g1917"><path
         id="path1919"
         style="fill:#ffffff;fill-opacity:1;fill-rule:nonzero;stroke:none"
         d="m 0,0 h -9.719 c -4.681,0 -9.719,-3.345 -9.719,-10.691 v -21.382 c 0,-1.61 1.305,-2.916 2.916,-2.916 1.61,0 2.915,1.306 2.915,2.916 v 21.382 c 0,4.509 2.976,4.86 3.888,4.86 H 0 c 1.61,0 2.916,1.305 2.916,2.915 C 2.916,-1.305 1.61,0 0,0" /></g><g
       transform="translate(84.221614,70.89709)"
       id="g1921"><path
         id="path1923"
         style="fill:#ffffff;fill-opacity:1;fill-rule:nonzero;stroke:none"
         d="m 0,0 c -10.182,0 -18.466,-8.284 -18.466,-18.466 0,-10.182 8.284,-18.466 18.466,-18.466 10.182,0 18.466,8.284 18.466,18.466 C 18.466,-8.284 10.182,0 0,0 m 0,-31.101 c -6.967,0 -12.635,5.668 -12.635,12.635 0,6.967 5.668,12.635 12.635,12.635 6.967,0 12.635,-5.668 12.635,-12.635 0,-6.967 -5.668,-12.635 -12.635,-12.635" /></g><g
       transform="translate(125.04161,70.89709)"
       id="g1925"><path
         id="path1927"
         style="fill:#ffffff;fill-opacity:1;fill-rule:nonzero;stroke:none"
         d="m 0,0 c -10.182,0 -18.466,-8.284 -18.466,-18.466 0,-10.182 8.284,-18.466 18.466,-18.466 10.182,0 18.466,8.284 18.466,18.466 C 18.466,-8.284 10.182,0 0,0 m 0,-31.101 c -6.967,0 -12.635,5.668 -12.635,12.635 0,6.967 5.668,12.635 12.635,12.635 6.967,0 12.635,-5.668 12.635,-12.635 0,-6.967 -5.668,-12.635 -12.635,-12.635" /></g><g
       transform="translate(165.86161,70.89709)"
       id="g1929"><path
         id="path1931"
         style="fill:#ffffff;fill-opacity:1;fill-rule:nonzero;stroke:none"
         d="m 0,0 c -10.164,0 -18.466,-8.302 -18.466,-18.466 v -18.466 -21.382 c 0,-1.611 1.305,-2.916 2.916,-2.916 1.61,0 2.915,1.305 2.915,2.916 0,14.578 17.43,21.002 22.559,24.291 5.129,3.288 8.542,9.04 8.542,15.557 C 18.466,-8.302 10.164,0 0,0 m 0,-31.101 c -7.013,0 -12.635,5.622 -12.635,12.635 0,7.012 5.622,12.635 12.635,12.635 7.013,0 12.635,-5.623 12.635,-12.635 0,-7.013 -5.622,-12.635 -12.635,-12.635" /></g><g
       transform="translate(62.393814,39.78859)"
       id="g1933"><path
         id="path1935"
         style="fill:#ffffff;fill-opacity:1;fill-rule:nonzero;stroke:none"
         d="M 0,0 -0.462,0.007 C -1.794,0.072 -2.47,1.054 -2.47,2.923 v 40.82 c 0,6.418 -5.231,8.747 -8.747,8.747 -1.61,0 -2.916,-1.305 -2.916,-2.915 0,-1.61 1.306,-2.916 2.916,-2.916 0.877,0 2.916,-0.284 2.916,-2.916 V 2.923 c 0,-6.417 4.649,-8.747 7.775,-8.747 l 0.105,0.008 C 1.185,-5.932 2.581,-4.724 2.697,-3.119 2.814,-1.512 1.606,-0.116 0,0" /></g><g
       transform="translate(165.86161,59.23419)"
       id="g1937"><path
         id="path1939"
         style="fill:#ffffff;fill-opacity:1;fill-rule:nonzero;stroke:none"
         d="m 0,0 c 3.757,0 6.803,-3.046 6.803,-6.803 0,-3.758 -3.046,-6.804 -6.803,-6.804 -3.758,0 -6.803,3.046 -6.803,6.804 C -6.803,-3.046 -3.758,0 0,0" /></g><g
       transform="translate(165.72981,47.57529)"
       id="g1941"><path
         id="path1943"
         style="fill:#00fcff;fill-opacity:1;fill-rule:nonzero;stroke:none"
         d="M 0,0 C 2.726,0 4.943,2.217 4.943,4.943 4.943,7.668 2.726,9.885 0,9.885 -2.726,9.885 -4.943,7.668 -4.943,4.943 -4.943,2.217 -2.726,0 0,0" /></g><g
       transform="translate(165.72981,47.57529)"
       id="g1945"><path
         id="path1947"
         style="fill:none;stroke:#00fcff;stroke-width:4.5;stroke-linecap:butt;stroke-linejoin:miter;stroke-miterlimit:4;stroke-dasharray:none;stroke-opacity:1"
         d="M 0,0 C 2.726,0 4.943,2.217 4.943,4.943 4.943,7.668 2.726,9.885 0,9.885 -2.726,9.885 -4.943,7.668 -4.943,4.943 -4.943,2.217 -2.726,0 0,0 Z" /></g></g></svg>