<?xml version="1.0" encoding="UTF-8"?>
<svg width="209.93" height="110.15" version="1.1" viewBox="0 0 209.93 110.15" xml:space="preserve" xmlns="http://www.w3.org/2000/svg"><g transform="matrix(1.3333 0 0 -1.3333 -35.839 123.04)"><g transform="translate(46.317 68.953)"><path d="m0 0h-9.719c-4.681 0-9.719-3.345-9.719-10.691v-21.382c0-1.61 1.305-2.916 2.916-2.916 1.61 0 2.915 1.306 2.915 2.916v21.382c0 4.509 2.976 4.86 3.888 4.86h9.719c1.61 0 2.916 1.305 2.916 2.915 0 1.611-1.306 2.916-2.916 2.916" fill="#fff"/></g><g transform="translate(84.222 70.897)"><path d="m0 0c-10.182 0-18.466-8.284-18.466-18.466s8.284-18.466 18.466-18.466 18.466 8.284 18.466 18.466-8.284 18.466-18.466 18.466m0-31.101c-6.967 0-12.635 5.668-12.635 12.635s5.668 12.635 12.635 12.635 12.635-5.668 12.635-12.635-5.668-12.635-12.635-12.635" fill="#fff"/></g><g transform="translate(125.04 70.897)"><path d="m0 0c-10.182 0-18.466-8.284-18.466-18.466s8.284-18.466 18.466-18.466 18.466 8.284 18.466 18.466-8.284 18.466-18.466 18.466m0-31.101c-6.967 0-12.635 5.668-12.635 12.635s5.668 12.635 12.635 12.635 12.635-5.668 12.635-12.635-5.668-12.635-12.635-12.635" fill="#fff"/></g><g transform="translate(165.86 70.897)"><path d="m0 0c-10.164 0-18.466-8.302-18.466-18.466v-39.848c0-1.611 1.305-2.916 2.916-2.916 1.61 0 2.915 1.305 2.915 2.916 0 14.578 17.43 21.002 22.559 24.291 5.129 3.288 8.542 9.04 8.542 15.557 0 10.164-8.302 18.466-18.466 18.466m0-31.101c-7.013 0-12.635 5.622-12.635 12.635 0 7.012 5.622 12.635 12.635 12.635s12.635-5.623 12.635-12.635c0-7.013-5.622-12.635-12.635-12.635" fill="#fff"/></g><g transform="translate(62.394 39.789)"><path d="m0 0-0.462 7e-3c-1.332 0.065-2.008 1.047-2.008 2.916v40.82c0 6.418-5.231 8.747-8.747 8.747-1.61 0-2.916-1.305-2.916-2.915s1.306-2.916 2.916-2.916c0.877 0 2.916-0.284 2.916-2.916v-40.82c0-6.417 4.649-8.747 7.775-8.747l0.105 8e-3c1.606-0.116 3.002 1.092 3.118 2.697 0.117 1.607-1.091 3.003-2.697 3.119" fill="#fff"/></g><g transform="translate(165.86 59.234)"><path d="m0 0c3.757 0 6.803-3.046 6.803-6.803 0-3.758-3.046-6.804-6.803-6.804-3.758 0-6.803 3.046-6.803 6.804 0 3.757 3.045 6.803 6.803 6.803" fill="#fff"/></g><g transform="translate(165.73 47.575)"><path d="m0 0c2.726 0 4.943 2.217 4.943 4.943 0 2.725-2.217 4.942-4.943 4.942s-4.943-2.217-4.943-4.942c0-2.726 2.217-4.943 4.943-4.943" fill="#00fcff"/></g><g transform="translate(165.73 47.575)"><path d="m0 0c2.726 0 4.943 2.217 4.943 4.943 0 2.725-2.217 4.942-4.943 4.942s-4.943-2.217-4.943-4.942c0-2.726 2.217-4.943 4.943-4.943z" fill="none" stroke="#00fcff" stroke-width="4.5"/></g></g></svg>
